# xmcd CD database file generated by Grip 3.3.1
# 
# Track frame offsets:
#       150
#       51833
#       80077
#       104713
#       130113
#       183446
#       218265
#       249933
# 
# Disc length: 4002 seconds
# 
# Revision: 1
# Processed by: cddbd v1.5.2PL0 Copyright (c) Steve Scherf et al.
# Submitted via: Grip 3.3.1
# 
DISCID=680fa008
DTITLE=Stefan Kirpal, Andreas Kirpal - Fr. Gernsheim: Works for violin a
DTITLE=nd piano - CD1
DYEAR=1900
DGENRE=Alternative
TTITLE0=Andante sostenuto - Allegro appassionato - Introduction und Alleg
TTITLE0=ro appassionato Op.38
TTITLE1=I. Andante con moto - più lento --Sonata No.1 c-Minor Op.4
TTITLE2=II. Allegretto scherzando - Sonata No.1 c-Minor Op.4
TTITLE3=III. Allegro - Sonata No.1 c-Minor Op.4
TTITLE4=I. Allegro moderato - Sonata No.2 C-Major Op.50 
TTITLE5=II. Andante sostenuto - Sonata No.2 C-Major Op.50
TTITLE6=III. Allegro energico - Sonata No.2 C-Major Op.50
TTITLE7=Andante molto sostenuto - Fantasiestück Op.33
EXTD=
EXTT0=
EXTT1=
EXTT2=
EXTT3=
EXTT4=
EXTT5=
EXTT6=
EXTT7=
PLAYORDER=
